# xmcd
#
# Track frame offsets:
#	150
#	18848
#	34304
#	51736
#	68581
#	86997
#	102530
#	120892
#	139275
#	153972
#	170194
#	187865
#	206060
#	223373
#	241694
#	270929
#
# Disc length: 3627 seconds
#
# Revision: 3
# Processed by: cddbd v1.5.2PL0 Copyright (c) Steve Scherf et al.
# Submitted via: audiograbber 1.83.01
#
DISCID=e80e2910
DTITLE=Compilation - CB60322
DYEAR=1900
DGENRE=Country
TTITLE0=Keith, Toby - Whiskey Girl
TTITLE1=Byrd, Tracy - How'd I Wind Up In Jamaica
TTITLE2=Shelton, Blake - When Somebody Knows You That Well
TTITLE3=Clark, Terri - Girls Lie Too
TTITLE4=Lonestar - Let's Be Us Again
TTITLE5=Adkins, Trace - Rough and Ready
TTITLE6=McBride, Martina - How Far
TTITLE7=Nichols, Joe - If Nobody Believed In You
TTITLE8=Lawson, Shannon - Smokin' Grass
TTITLE9=Willmon, Trent - Beer Man
TTITLE10=Wright, Chely - Back of The Bottom Drawer
TTITLE11=Wayne, Jimmy - You Are
TTITLE12=Jenkins, The - Blame It on Mama
TTITLE13=Paisley, Brad and Alison Krauss - Whiskey Lullaby
TTITLE14=Proctor, Rachel - Me And Emily
TTITLE15=DATA - DATA
EXTD=
EXTT0=
EXTT1=
EXTT2=
EXTT3=
EXTT4=
EXTT5=
EXTT6=
EXTT7=
EXTT8=
EXTT9=
EXTT10=
EXTT11=
EXTT12=
EXTT13=
EXTT14=
EXTT15=
PLAYORDER=
